<svg xmlns="http://www.w3.org/2000/svg" version="1.1" xmlns:xlink="http://www.w3.org/1999/xlink" xmlns:svgjs="http://svgjs.dev/svgjs" width="2000" height="1247" viewBox="0 0 2000 1247"><g transform="matrix(1,0,0,1,-1.2121212121212466,0.504858299595071)"><svg viewBox="0 0 396 247" data-background-color="#000000" preserveAspectRatio="xMidYMid meet" height="1247" width="2000" xmlns="http://www.w3.org/2000/svg" xmlns:xlink="http://www.w3.org/1999/xlink"><g id="tight-bounds" transform="matrix(1,0,0,1,0.2400000000000091,-0.09999999999999432)"><svg viewBox="0 0 395.52 247.2" height="247.2" width="395.52"><g><svg></svg></g><g><svg viewBox="0 0 395.52 247.2" height="247.2" width="395.52"><mask id="1e18418b-95cb-4ffc-bf56-15b48b6b8e15"><rect width="640" height="400" fill="white"></rect><g transform="matrix(1,0,0,1,39.55199999999999,62.76655588175053)"><svg viewBox="0 0 316.416 121.66688823649893" height="121.66688823649893" width="316.416"><g><svg viewBox="0 0 316.416 121.66688823649893" height="121.66688823649893" width="316.416"><g><svg viewBox="0 0 316.416 121.66688823649893" height="121.66688823649893" width="316.416"><g id="SvgjsG1006"><svg viewBox="0 0 316.416 121.66688823649893" height="121.66688823649893" width="316.416" id="SvgjsSvg1005"><g><svg viewBox="0 0 316.416 121.66688823649893" height="121.66688823649893" width="316.416"><g transform="matrix(1,0,0,1,0,0)"><svg width="316.416" viewBox="-0.41000000000000014 -40.99 144.02 56" height="121.66688823649893" data-palette-color="#ff57c1"><path d="M21.56-7.3L21.56-7.3Q21.56-3.56 18.77-1.54 15.99 0.49 10.96 0.49L10.96 0.49Q5.64 0.49 2.66-1.2L2.66-1.2 2.66-4.96Q4.59-3.98 6.8-3.42 9.01-2.86 11.06-2.86L11.06-2.86Q14.23-2.86 15.94-3.87 17.65-4.88 17.65-6.96L17.65-6.96Q17.65-8.52 16.3-9.63 14.94-10.74 11.01-12.26L11.01-12.26Q7.28-13.65 5.7-14.69 4.13-15.72 3.36-17.04 2.59-18.36 2.59-20.19L2.59-20.19Q2.59-23.46 5.25-25.35 7.91-27.25 12.55-27.25L12.55-27.25Q16.87-27.25 21-25.49L21-25.49 19.56-22.19Q15.53-23.85 12.26-23.85L12.26-23.85Q9.38-23.85 7.91-22.95 6.45-22.05 6.45-20.46L6.45-20.46Q6.45-19.38 6.99-18.63 7.54-17.87 8.76-17.19 9.99-16.5 13.45-15.21L13.45-15.21Q18.21-13.48 19.89-11.72 21.56-9.96 21.56-7.3ZM36.79-2.86L36.79-2.86Q37.86-2.86 38.86-3.02 39.87-3.17 40.45-3.34L40.45-3.34 40.45-0.24Q39.79 0.07 38.51 0.28 37.23 0.49 36.2 0.49L36.2 0.49Q28.44 0.49 28.44-7.69L28.44-7.69 28.44-23.61 24.61-23.61 24.61-25.56 28.44-27.25 30.15-32.96 32.49-32.96 32.49-26.76 40.26-26.76 40.26-23.61 32.49-23.61 32.49-7.86Q32.49-5.44 33.64-4.15 34.79-2.86 36.79-2.86ZM65.25 0L62.25 0 61.45-3.81 61.25-3.81Q59.25-1.29 57.26-0.4 55.27 0.49 52.29 0.49L52.29 0.49Q48.31 0.49 46.05-1.56 43.79-3.61 43.79-7.4L43.79-7.4Q43.79-15.5 56.76-15.89L56.76-15.89 61.3-16.04 61.3-17.7Q61.3-20.85 59.94-22.35 58.59-23.85 55.61-23.85L55.61-23.85Q52.27-23.85 48.04-21.8L48.04-21.8 46.8-24.9Q48.77-25.98 51.13-26.59 53.49-27.2 55.85-27.2L55.85-27.2Q60.64-27.2 62.95-25.07 65.25-22.95 65.25-18.26L65.25-18.26 65.25 0ZM53.1-2.86L53.1-2.86Q56.88-2.86 59.04-4.93 61.2-7.01 61.2-10.74L61.2-10.74 61.2-13.16 57.15-12.99Q52.31-12.82 50.18-11.49 48.04-10.16 48.04-7.35L48.04-7.35Q48.04-5.15 49.37-4 50.7-2.86 53.1-2.86ZM85.81-27.25L85.81-27.25Q87.59-27.25 89.01-26.95L89.01-26.95 88.44-23.19Q86.78-23.56 85.51-23.56L85.51-23.56Q82.27-23.56 79.96-20.92 77.65-18.29 77.65-14.36L77.65-14.36 77.65 0 73.6 0 73.6-26.76 76.95-26.76 77.41-21.8 77.6-21.8Q79.09-24.41 81.19-25.83 83.29-27.25 85.81-27.25ZM100.55 0.15L89.76-26.76 94.11-26.76 99.97-11.5Q101.89-6.27 102.36-3.96L102.36-3.96 102.55-3.96Q102.87-5.2 103.88-8.22 104.9-11.23 110.51-26.76L110.51-26.76 114.86-26.76 103.36 3.71Q101.65 8.23 99.37 10.12 97.08 12.01 93.76 12.01L93.76 12.01Q91.91 12.01 90.1 11.6L90.1 11.6 90.1 8.35Q91.45 8.64 93.11 8.64L93.11 8.64Q97.28 8.64 99.06 3.96L99.06 3.96 100.55 0.15ZM123.01-13.7L123.21-13.7Q124.26-15.19 126.4-17.6L126.4-17.6 135.05-26.76 139.86-26.76 129.02-15.36 140.61 0 135.71 0 126.26-12.65 123.21-10.01 123.21 0 119.2 0 119.2-37.99 123.21-37.99 123.21-17.85Q123.21-16.5 123.01-13.7L123.01-13.7Z" opacity="1" transform="matrix(1,0,0,1,0,0)" fill="black" class="wordmark-text-0" id="SvgjsPath1004" stroke-width="5" stroke="black" stroke-linejoin="round"></path></svg></g></svg></g></svg></g></svg></g></svg></g></svg></g></mask><g transform="matrix(1,0,0,1,39.55199999999999,62.76655588175053)"><svg viewBox="0 0 316.416 121.66688823649893" height="121.66688823649893" width="316.416"><g><svg viewBox="0 0 316.416 121.66688823649893" height="121.66688823649893" width="316.416"><g><svg viewBox="0 0 316.416 121.66688823649893" height="121.66688823649893" width="316.416"><g id="textblocktransform"><svg viewBox="0 0 316.416 121.66688823649893" height="121.66688823649893" width="316.416" id="textblock"><g><svg viewBox="0 0 316.416 121.66688823649893" height="121.66688823649893" width="316.416"><g transform="matrix(1,0,0,1,0,0)"><svg width="316.416" viewBox="-0.41000000000000014 -40.99 144.02 56" height="121.66688823649893" data-palette-color="#ff57c1"><path d="M21.56-7.3L21.56-7.3Q21.56-3.56 18.77-1.54 15.99 0.49 10.96 0.49L10.96 0.49Q5.64 0.49 2.66-1.2L2.66-1.2 2.66-4.96Q4.59-3.98 6.8-3.42 9.01-2.86 11.06-2.86L11.06-2.86Q14.23-2.86 15.94-3.87 17.65-4.88 17.65-6.96L17.65-6.96Q17.65-8.52 16.3-9.63 14.94-10.74 11.01-12.26L11.01-12.26Q7.28-13.65 5.7-14.69 4.13-15.72 3.36-17.04 2.59-18.36 2.59-20.19L2.59-20.19Q2.59-23.46 5.25-25.35 7.91-27.25 12.55-27.25L12.55-27.25Q16.87-27.25 21-25.49L21-25.49 19.56-22.19Q15.53-23.85 12.26-23.85L12.26-23.85Q9.38-23.85 7.91-22.95 6.45-22.05 6.45-20.46L6.45-20.46Q6.45-19.38 6.99-18.63 7.54-17.87 8.76-17.19 9.99-16.5 13.45-15.21L13.45-15.21Q18.21-13.48 19.89-11.72 21.56-9.96 21.56-7.3ZM36.79-2.86L36.79-2.86Q37.86-2.86 38.86-3.02 39.87-3.17 40.45-3.34L40.45-3.34 40.45-0.24Q39.79 0.07 38.51 0.28 37.23 0.49 36.2 0.49L36.2 0.49Q28.44 0.49 28.44-7.69L28.44-7.69 28.44-23.61 24.61-23.61 24.61-25.56 28.44-27.25 30.15-32.96 32.49-32.96 32.49-26.76 40.26-26.76 40.26-23.61 32.49-23.61 32.49-7.86Q32.49-5.44 33.64-4.15 34.79-2.86 36.79-2.86ZM65.25 0L62.25 0 61.45-3.81 61.25-3.81Q59.25-1.29 57.26-0.4 55.27 0.49 52.29 0.49L52.29 0.49Q48.31 0.49 46.05-1.56 43.79-3.61 43.79-7.4L43.79-7.4Q43.79-15.5 56.76-15.89L56.76-15.89 61.3-16.04 61.3-17.7Q61.3-20.85 59.94-22.35 58.59-23.85 55.61-23.85L55.61-23.85Q52.27-23.85 48.04-21.8L48.04-21.8 46.8-24.9Q48.77-25.98 51.13-26.59 53.49-27.2 55.85-27.2L55.85-27.2Q60.64-27.2 62.95-25.07 65.25-22.95 65.25-18.26L65.25-18.26 65.25 0ZM53.1-2.86L53.1-2.86Q56.88-2.86 59.04-4.93 61.2-7.01 61.2-10.74L61.2-10.74 61.2-13.16 57.15-12.99Q52.31-12.82 50.18-11.49 48.04-10.16 48.04-7.35L48.04-7.35Q48.04-5.15 49.37-4 50.7-2.86 53.1-2.86ZM85.81-27.25L85.81-27.25Q87.59-27.25 89.01-26.95L89.01-26.95 88.44-23.19Q86.78-23.56 85.51-23.56L85.51-23.56Q82.27-23.56 79.96-20.92 77.65-18.29 77.65-14.36L77.65-14.36 77.65 0 73.6 0 73.6-26.76 76.95-26.76 77.41-21.8 77.6-21.8Q79.09-24.41 81.19-25.83 83.29-27.25 85.81-27.25ZM100.55 0.15L89.76-26.76 94.11-26.76 99.97-11.5Q101.89-6.27 102.36-3.96L102.36-3.96 102.55-3.96Q102.87-5.2 103.88-8.22 104.9-11.23 110.51-26.76L110.51-26.76 114.86-26.76 103.36 3.71Q101.65 8.23 99.37 10.12 97.08 12.01 93.76 12.01L93.76 12.01Q91.91 12.01 90.1 11.6L90.1 11.6 90.1 8.35Q91.45 8.64 93.11 8.64L93.11 8.64Q97.28 8.64 99.06 3.96L99.06 3.96 100.55 0.15ZM123.01-13.7L123.21-13.7Q124.26-15.19 126.4-17.6L126.4-17.6 135.05-26.76 139.86-26.76 129.02-15.36 140.61 0 135.71 0 126.26-12.65 123.21-10.01 123.21 0 119.2 0 119.2-37.99 123.21-37.99 123.21-17.85Q123.21-16.5 123.01-13.7L123.01-13.7Z" opacity="1" transform="matrix(1,0,0,1,0,0)" fill="#ff57c1" class="wordmark-text-0" data-fill-palette-color="primary" id="text-0"></path></svg></g></svg></g></svg></g></svg></g></svg></g></svg></g><g mask="url(#1e18418b-95cb-4ffc-bf56-15b48b6b8e15)"><g transform="matrix(5.208045708459888, 0, 0, 5.208045708459888, 75.17562413712537, 1)"><svg xmlns="http://www.w3.org/2000/svg" xmlns:xlink="http://www.w3.org/1999/xlink" version="1.1" x="0" y="0" viewBox="0.46199999999999974 0.347 47.075 47.080999999999996" enable-background="new 0 0 48 48" xml:space="preserve" height="47.080999999999996" width="47.075" class="icon-none" data-fill-palette-color="accent" id="none"><path d="M24 47.424c0.008 0 0.015 0 0.022 0 0.01 0 0.02 0.004 0.029 0.004 0.001 0 0.001 0 0.002 0s0.001 0 0.001 0c0.015 0 0.03-0.006 0.045-0.006 12.933-0.055 23.438-10.59 23.438-23.537 0-12.915-10.456-23.43-23.347-23.533-0.005 0-0.011 0-0.015 0C24.117 0.351 24.06 0.347 24 0.347c-12.979 0-23.538 10.56-23.538 23.538C0.462 36.865 11.021 47.424 24 47.424zM44.374 23.885c0 2.675-0.523 5.228-1.466 7.57-1.109-0.391-2.838-0.938-5.087-1.461 0.467-1.98 0.725-4.025 0.725-6.109 0-2.11-0.265-4.183-0.744-6.188 1.665-0.393 3.36-0.871 5.085-1.439C43.842 18.615 44.374 21.189 44.374 23.885zM35.381 23.885c0 1.869-0.235 3.703-0.66 5.476-2.625-0.463-5.707-0.818-9.138-0.896v-9.169c2.859-0.078 5.917-0.371 9.122-0.951C35.141 20.138 35.381 21.994 35.381 23.885zM22.418 42.912c-3.653-2.662-6.427-6.299-8.052-10.436 2.816-0.48 5.512-0.721 8.052-0.793V42.912zM25.583 42.986V31.68c3.041 0.076 5.792 0.381 8.166 0.775C32.11 36.641 29.295 40.313 25.583 42.986zM25.583 16.092V4.785c3.705 2.67 6.518 6.335 8.159 10.511C30.886 15.784 28.153 16.024 25.583 16.092zM22.418 4.859v11.232c-3-0.082-5.714-0.385-8.061-0.774C15.98 11.171 18.758 7.527 22.418 4.859zM22.418 19.3v9.176c-2.83 0.082-5.852 0.369-9.018 0.943-0.435-1.791-0.674-3.645-0.674-5.535 0-1.869 0.234-3.703 0.66-5.478C15.986 18.865 19.027 19.217 22.418 19.3zM10.304 30.066c-1.695 0.4-3.424 0.889-5.18 1.473-0.963-2.365-1.497-4.947-1.497-7.654 0-2.688 0.527-5.252 1.478-7.604 1.102 0.393 2.868 0.955 5.181 1.494-0.467 1.98-0.724 4.025-0.724 6.109C9.562 25.994 9.825 28.063 10.304 30.066zM6.555 34.396c1.58-0.51 3.137-0.932 4.667-1.283 1.434 3.883 3.756 7.396 6.792 10.246C13.187 41.873 9.12 38.639 6.555 34.396zM30.149 43.309c3.021-2.852 5.329-6.361 6.752-10.238 1.974 0.445 3.53 0.906 4.584 1.258C38.952 38.555 34.931 41.791 30.149 43.309zM41.464 13.405c-1.549 0.497-3.076 0.91-4.578 1.255-1.425-3.86-3.727-7.355-6.736-10.197C34.916 5.975 38.929 9.197 41.464 13.405zM18.015 4.411c-3.049 2.861-5.378 6.39-6.81 10.291-2.03-0.457-3.62-0.935-4.674-1.287C9.095 9.153 13.172 5.903 18.015 4.411z" fill="#120cc9" data-fill-palette-color="accent"></path></svg></g></g></svg></g><defs></defs></svg><rect width="395.52" height="247.2" fill="none" stroke="none" visibility="hidden"></rect></g></svg></g></svg>