<svg xmlns="http://www.w3.org/2000/svg" version="1.1" xmlns:xlink="http://www.w3.org/1999/xlink" xmlns:svgjs="http://svgjs.dev/svgjs" width="128" height="128" viewBox="0 0 128 128"><g transform="matrix(0.8046875,0,0,0.8046875,12.757692592892646,12.760752631578946)"><svg viewBox="0 0 95 95" data-background-color="#000000" preserveAspectRatio="xMidYMid meet" height="128" width="128" xmlns="http://www.w3.org/2000/svg" xmlns:xlink="http://www.w3.org/1999/xlink"><g id="tight-bounds" transform="matrix(1,0,0,1,-0.23767763422137023,-0.24049999999999727)"><svg viewBox="0 0 95.47535526844273 95.48099999999998" height="95.48099999999998" width="95.47535526844273"><g><svg viewBox="0 0 95.47535526844273 95.48099999999998" height="95.48099999999998" width="95.47535526844273"><g><svg viewBox="0 0 95.47535526844273 95.48099999999998" height="95.48099999999998" width="95.47535526844273"><g id="textblocktransform"><svg viewBox="0 0 95.47535526844273 95.48099999999998" height="95.48099999999998" width="95.47535526844273" id="textblock"><g><svg viewBox="0 0 95.47535526844273 95.48099999999998" height="95.48099999999998" width="95.47535526844273"><g><svg viewBox="0 0 95.47535526844273 95.48099999999998" height="95.48099999999998" width="95.47535526844273"><g><svg xmlns="http://www.w3.org/2000/svg" xmlns:xlink="http://www.w3.org/1999/xlink" version="1.1" x="0" y="0" viewBox="8.085714285714285 8.098169278175142 83.79687644989187 83.80183072182484" enable-background="new 0 0 100 100" xml:space="preserve" height="95.48099999999998" width="95.47535526844273" class="icon-icon-0" data-fill-palette-color="accent" id="icon-0"></svg></g></svg></g></svg></g></svg></g></svg></g></svg></g><defs></defs><mask id="dd1d0de1-ca01-4e3d-a5fe-4a7c937b1ec6"><g id="SvgjsG1635"><svg viewBox="0 0 95.47535526844273 95.48099999999998" height="95.48099999999998" width="95.47535526844273"><g><svg viewBox="0 0 95.47535526844273 95.48099999999998" height="95.48099999999998" width="95.47535526844273"><g><svg viewBox="0 0 95.47535526844273 95.48099999999998" height="95.48099999999998" width="95.47535526844273"><g id="SvgjsG1634"><svg viewBox="0 0 95.47535526844273 95.48099999999998" height="95.48099999999998" width="95.47535526844273" id="SvgjsSvg1633"><g><svg viewBox="0 0 95.47535526844273 95.48099999999998" height="95.48099999999998" width="95.47535526844273"><g><svg viewBox="0 0 95.47535526844273 95.48099999999998" height="95.48099999999998" width="95.47535526844273"><g><svg xmlns="http://www.w3.org/2000/svg" xmlns:xlink="http://www.w3.org/1999/xlink" version="1.1" x="0" y="0" viewBox="8.085714285714285 8.098169278175142 83.79687644989187 83.80183072182484" enable-background="new 0 0 100 100" xml:space="preserve" height="95.48099999999998" width="95.47535526844273" class="icon-icon-0" data-fill-palette-color="accent" id="SvgjsSvg1632"><path d="M50 77.1c3.6 0 7.1-0.7 10.4-2.1 13.8-5.7 20.4-21.6 14.7-35.5C70.9 29.4 61 22.9 50 22.9c-3.6 0-7.1 0.7-10.4 2.1-13.8 5.7-20.4 21.6-14.7 35.5C29.1 70.6 39 77.1 50 77.1zM30.3 61.7h5.5c1.1 3.3 2.6 6.5 4.4 9.1C36.2 68.8 32.7 65.7 30.3 61.7zM71.7 42.6c1.7 5 1.6 10.2 0 14.9h-6c0.5-2.5 0.8-5.1 0.8-7.5 0-2.5-0.2-5-0.7-7.4H71.7zM62.2 50c0 2.4-0.3 5-1 7.5h-9V42.6h9.2C62 44.9 62.2 47.4 62.2 50zM48 72.2c-3.1-1.4-5.9-5.6-7.7-10.5H48V72.2zM52.3 72.2V61.7H60C58.1 66.7 55.3 70.9 52.3 72.2zM52.3 38.3V27.6c3.2 1.3 6.2 5.4 8 10.7H52.3zM48 27.6v10.7h-8C41.8 33 44.8 28.9 48 27.6zM48 42.6v14.9h-9c-0.6-2.5-1-5.1-1-7.5 0-2.5 0.3-5 0.8-7.4H48zM34.7 57.4h-6.3c-1.7-5-1.6-10.2 0-14.9h6.1C34 45 33.8 47.5 33.8 50 33.8 52.3 34.1 54.8 34.7 57.4zM60.2 70.5c0.6-0.9 1.3-1.9 1.8-3 0.9-1.8 1.8-3.7 2.4-5.8h5.2C67.5 65.4 64.3 68.5 60.2 70.5zM69.7 38.3h-4.9c-0.7-2.3-1.6-4.6-2.7-6.5-0.4-0.7-0.8-1.3-1.2-1.9C64.5 31.8 67.5 34.7 69.7 38.3zM39.5 29.6c-0.5 0.7-0.9 1.4-1.3 2.1-1.1 2-2 4.2-2.7 6.5h-5.2C32.5 34.7 35.6 31.7 39.5 29.6zM49.5 8.1c10.8-0.1 21.1 3.9 29 11.2l0-3.2c0-1.2 0.9-2.1 2.1-2.1 0 0 0 0 0 0 1.2 0 2.1 0.9 2.1 2.1l0.1 8.3c0 1.2-0.9 2.1-2.1 2.1l-8.3 0.1c0 0 0 0 0 0-1.2 0-2.1-0.9-2.1-2.1 0-1.2 0.9-2.1 2.1-2.1l3.2 0c-7.1-6.5-16.2-10.1-25.9-10-10.1 0.1-19.5 4.1-26.5 11.3C12.9 34.1 9.6 49.1 14.5 62.8c0.4 1.1-0.2 2.3-1.3 2.7-0.2 0.1-0.5 0.1-0.7 0.1-0.9 0-1.7-0.5-2-1.4C7.9 56.9 7.4 49 9 41.4c1.6-7.8 5.5-15 11.1-20.7C27.8 12.7 38.3 8.2 49.5 8.1zM76.9 76.3c10.2-10.4 13.4-25.4 8.5-39.1-0.4-1.1 0.2-2.3 1.3-2.7 1.1-0.4 2.3 0.2 2.7 1.3 2.6 7.3 3.2 15.2 1.6 22.8-1.6 7.8-5.5 15-11.1 20.7-7.8 8-18.3 12.5-29.5 12.6-0.2 0-0.3 0-0.5 0-10.7 0-20.7-4-28.5-11.2l0 3.2c0 1.2-0.9 2.1-2.1 2.1 0 0 0 0 0 0-1.2 0-2.1-0.9-2.1-2.1l-0.1-8.3c0-0.6 0.2-1.1 0.6-1.5 0.4-0.4 0.9-0.6 1.5-0.6l8.3-0.1c1.2 0 2.1 0.9 2.1 2.1 0 1.2-0.9 2.1-2.1 2.1l-3.2 0C39.4 91.4 62.7 90.9 76.9 76.3z" fill="white"></path></svg></g></svg></g></svg></g></svg></g></svg></g></svg></g><defs><mask></mask></defs></svg><rect width="95.47535526844273" height="95.48099999999998" fill="black" stroke="none" visibility="hidden"></rect></g></mask><linearGradient x1="0.054" x2="0.941" y1="0.5" y2="0.5" id="ee2f0432-828f-4fed-8ef4-a17a5b74de8f"><stop stop-color="#864d25" offset="0"></stop><stop stop-color="#f1c4b3" offset="0.498"></stop><stop stop-color="#864d25" offset="1"></stop></linearGradient><rect width="95.47535526844273" height="95.48099999999998" fill="url(#ee2f0432-828f-4fed-8ef4-a17a5b74de8f)" mask="url(#dd1d0de1-ca01-4e3d-a5fe-4a7c937b1ec6)" data-fill-palette-color="accent"></rect></svg><rect width="95.47535526844273" height="95.48099999999998" fill="none" stroke="none" visibility="hidden"></rect></g></svg></g></svg>