<svg xmlns="http://www.w3.org/2000/svg" version="1.1" xmlns:xlink="http://www.w3.org/1999/xlink" xmlns:svgjs="http://svgjs.dev/svgjs" width="2000" height="671" viewBox="0 0 2000 671"><g transform="matrix(1,0,0,1,-1.2121212121212466,-1.0230332484027826)"><svg viewBox="0 0 396 133" data-background-color="#000000" preserveAspectRatio="xMidYMid meet" height="671" width="2000" xmlns="http://www.w3.org/2000/svg" xmlns:xlink="http://www.w3.org/1999/xlink"><g id="tight-bounds" transform="matrix(1,0,0,1,0.2400000000000091,0.20277708202320355)"><svg viewBox="0 0 395.52 132.59444583595356" height="132.59444583595356" width="395.52"><g><svg viewBox="0 0 670.802184345993 224.88026875734255" height="132.59444583595356" width="395.52"><g transform="matrix(1,0,0,1,0,59.06546309839447)"><svg viewBox="0 0 395.52 106.74934256055361" height="106.74934256055361" width="395.52"><g id="textblocktransform"><svg viewBox="0 0 395.52 106.74934256055361" height="106.74934256055361" width="395.52" id="textblock"><g><svg viewBox="0 0 395.52 106.74934256055361" height="106.74934256055361" width="395.52"><g transform="matrix(1,0,0,1,0,0)"><svg width="395.52" viewBox="1.6 -36.3 173.39000000000001 46.8" height="106.74934256055361" data-palette-color="url(#bfb62696-19ea-405d-a238-d8c956590c15)"></svg></g></svg></g></svg></g></svg></g><g transform="matrix(1,0,0,1,445.9219155886505,0)"><svg viewBox="0 0 224.88026875734255 224.88026875734255" height="224.88026875734255" width="224.88026875734255"><g><svg></svg></g><g id="icon-0"><svg viewBox="0 0 224.88026875734255 224.88026875734255" height="224.88026875734255" width="224.88026875734255"><g></g><g transform="matrix(1,0,0,1,49.620853101954886,49.61713907566579)"><svg viewBox="0 0 125.63856255343278 125.64599060601097" height="125.64599060601097" width="125.63856255343278"><g><svg xmlns="http://www.w3.org/2000/svg" xmlns:xlink="http://www.w3.org/1999/xlink" version="1.1" x="0" y="0" viewBox="8.085714285714285 8.098169278175142 83.79687644989187 83.80183072182484" enable-background="new 0 0 100 100" xml:space="preserve" height="125.64599060601097" width="125.63856255343278" class="icon-cg-0" data-fill-palette-color="accent" id="cg-0"></svg></g></svg></g></svg></g></svg></g></svg></g><defs></defs><mask id="72e08321-a555-435e-8f06-03c580a11c2e"><g id="SvgjsG1149"><svg viewBox="0 0 395.52 132.59444583595356" height="132.59444583595356" width="395.52"><g><svg viewBox="0 0 670.802184345993 224.88026875734255" height="132.59444583595356" width="395.52"><g transform="matrix(1,0,0,1,0,59.06546309839447)"><svg viewBox="0 0 395.52 106.74934256055361" height="106.74934256055361" width="395.52"><g id="SvgjsG1148"><svg viewBox="0 0 395.52 106.74934256055361" height="106.74934256055361" width="395.52" id="SvgjsSvg1147"><g><svg viewBox="0 0 395.52 106.74934256055361" height="106.74934256055361" width="395.52"><g transform="matrix(1,0,0,1,0,0)"><svg width="395.52" viewBox="1.6 -36.3 173.39000000000001 46.8" height="106.74934256055361" data-palette-color="url(#bfb62696-19ea-405d-a238-d8c956590c15)"><path d="M15.55-27Q20.85-27 24.53-24.93 28.2-22.85 28.2-18.5L28.2-18.5 18.95-18.5Q18.95-19.95 17.65-20.55L17.65-20.55Q16.75-21.05 15.4-21.05L15.4-21.05Q11.8-21.05 11.8-19.35L11.8-19.35Q11.8-18.4 13.05-18 14.3-17.6 17.15-17.15L17.15-17.15Q20.65-16.65 23-15.98 25.35-15.3 27.1-13.58 28.85-11.85 28.85-8.75L28.85-8.75Q28.85-3.7 25.08-1.55 21.3 0.6 15.2 0.6L15.2 0.6Q11.7 0.6 8.6-0.38 5.5-1.35 3.55-3.4 1.6-5.45 1.6-8.6L1.6-8.6 10.85-8.6 10.85-8.4Q10.9-6.7 12.28-6.03 13.65-5.35 15.2-5.35L15.2-5.35Q19.35-5.35 19.35-7.3L19.35-7.3Q19.35-8.3 18.05-8.75 16.75-9.2 13.8-9.7L13.8-9.7Q10.25-10.3 7.98-11 5.7-11.7 4-13.38 2.3-15.05 2.3-18.05L2.3-18.05Q2.3-22.9 5.98-24.95 9.65-27 15.55-27L15.55-27ZM45.55-26.4L51.15-26.4 51.15-19.65 45.55-19.65 45.55-9.6Q45.55-7.8 46.15-6.98 46.75-6.15 48.35-6.15L48.35-6.15 51.15-6.15 51.15-0.3Q49.95 0.1 48.05 0.35 46.15 0.6 44.75 0.6L44.75 0.6Q40.35 0.6 37.97-1 35.6-2.6 35.6-6.45L35.6-6.45 35.6-19.65 31.9-19.65 31.9-26.4 36-26.4 38.15-34.4 45.55-34.4 45.55-26.4ZM68.8-27Q74.84-27 78.65-24.98 82.45-22.95 82.45-18.4L82.45-18.4 82.45-8.1Q82.45-7.25 82.84-6.7 83.25-6.15 84.05-6.15L84.05-6.15 85.84-6.15 85.84-0.4Q85.7-0.3 85.07-0.08 84.45 0.15 83.3 0.38 82.15 0.6 80.65 0.6L80.65 0.6Q77.75 0.6 75.87-0.28 74-1.15 73.3-2.7L73.3-2.7Q71.4-1.2 69.05-0.3 66.7 0.6 63.55 0.6L63.55 0.6Q54.25 0.6 54.25-6.8L54.25-6.8Q54.25-10.65 56.32-12.68 58.4-14.7 62.3-15.45 66.2-16.2 72.5-16.2L72.5-16.2 72.5-17.5Q72.5-19.05 71.42-19.85 70.34-20.65 68.65-20.65L68.65-20.65Q67.09-20.65 65.97-20.1 64.84-19.55 64.84-18.35L64.84-18.35 64.84-18.15 55.05-18.15Q55-18.4 55-18.85L55-18.85Q55-22.6 58.57-24.8 62.15-27 68.8-27L68.8-27ZM72.5-11.5Q68.25-11.5 66.22-10.58 64.2-9.65 64.2-8.1L64.2-8.1Q64.2-5.6 67.59-5.6L67.59-5.6Q69.55-5.6 71.02-6.65 72.5-7.7 72.5-9.25L72.5-9.25 72.5-11.5ZM105.14-27.05Q106.29-27.05 107.19-26.78 108.09-26.5 108.09-26.45L108.09-26.45 108.09-18.1 104.89-18.1Q101.79-18.1 100.42-16.5 99.04-14.9 99.04-11.75L99.04-11.75 99.04 0 89.09 0 89.09-26.4 97.24-26.4 97.89-22.4Q98.79-24.7 100.74-25.88 102.69-27.05 105.14-27.05L105.14-27.05ZM132.34-0.8Q130.29 4.75 127.32 7.63 124.34 10.5 118.99 10.5L118.99 10.5Q115.74 10.5 113.24 9.6L113.24 9.6 113.24 3.65 117.24 3.65Q120.99 3.65 121.69 0L121.69 0 111.19-26.4 121.89-26.4 126.94-8.85 127.29-8.85 131.94-26.4 141.74-26.4 132.34-0.8ZM154.69-16.3L163.14-26.4 174.74-26.4 164.99-15.75 174.99 0 163.69 0 158.14-9.05 154.69-5.7 154.69 0 144.74 0 144.74-36.3 154.69-36.3 154.69-16.3Z" opacity="1" transform="matrix(1,0,0,1,0,0)" fill="white" class="wordmark-text-0" id="SvgjsPath1146"></path></svg></g></svg></g></svg></g></svg></g><g transform="matrix(1,0,0,1,445.9219155886505,0)"><svg viewBox="0 0 224.88026875734255 224.88026875734255" height="224.88026875734255" width="224.88026875734255"><g><svg></svg></g><g id="SvgjsG1145"><svg viewBox="0 0 224.88026875734255 224.88026875734255" height="224.88026875734255" width="224.88026875734255"><g><path d="M0 112.44c0-62.099 50.341-112.44 112.44-112.44 62.099 0 112.44 50.341 112.44 112.44 0 62.099-50.341 112.44-112.44 112.44-62.099 0-112.44-50.341-112.44-112.44zM112.44 215.254c56.782 0 102.813-46.031 102.814-102.814 0-56.782-46.031-102.813-102.814-102.813-56.782 0-102.813 46.031-102.813 102.813 0 56.782 46.031 102.813 102.813 102.814z" fill="black" stroke="transparent"></path></g><g transform="matrix(1,0,0,1,49.620853101954886,49.61713907566579)"><svg viewBox="0 0 125.63856255343278 125.64599060601097" height="125.64599060601097" width="125.63856255343278"><g><svg xmlns="http://www.w3.org/2000/svg" xmlns:xlink="http://www.w3.org/1999/xlink" version="1.1" x="0" y="0" viewBox="8.085714285714285 8.098169278175142 83.79687644989187 83.80183072182484" enable-background="new 0 0 100 100" xml:space="preserve" height="125.64599060601097" width="125.63856255343278" class="icon-cg-0" data-fill-palette-color="accent" id="SvgjsSvg1144"><path d="M50 77.1c3.6 0 7.1-0.7 10.4-2.1 13.8-5.7 20.4-21.6 14.7-35.5C70.9 29.4 61 22.9 50 22.9c-3.6 0-7.1 0.7-10.4 2.1-13.8 5.7-20.4 21.6-14.7 35.5C29.1 70.6 39 77.1 50 77.1zM30.3 61.7h5.5c1.1 3.3 2.6 6.5 4.4 9.1C36.2 68.8 32.7 65.7 30.3 61.7zM71.7 42.6c1.7 5 1.6 10.2 0 14.9h-6c0.5-2.5 0.8-5.1 0.8-7.5 0-2.5-0.2-5-0.7-7.4H71.7zM62.2 50c0 2.4-0.3 5-1 7.5h-9V42.6h9.2C62 44.9 62.2 47.4 62.2 50zM48 72.2c-3.1-1.4-5.9-5.6-7.7-10.5H48V72.2zM52.3 72.2V61.7H60C58.1 66.7 55.3 70.9 52.3 72.2zM52.3 38.3V27.6c3.2 1.3 6.2 5.4 8 10.7H52.3zM48 27.6v10.7h-8C41.8 33 44.8 28.9 48 27.6zM48 42.6v14.9h-9c-0.6-2.5-1-5.1-1-7.5 0-2.5 0.3-5 0.8-7.4H48zM34.7 57.4h-6.3c-1.7-5-1.6-10.2 0-14.9h6.1C34 45 33.8 47.5 33.8 50 33.8 52.3 34.1 54.8 34.7 57.4zM60.2 70.5c0.6-0.9 1.3-1.9 1.8-3 0.9-1.8 1.8-3.7 2.4-5.8h5.2C67.5 65.4 64.3 68.5 60.2 70.5zM69.7 38.3h-4.9c-0.7-2.3-1.6-4.6-2.7-6.5-0.4-0.7-0.8-1.3-1.2-1.9C64.5 31.8 67.5 34.7 69.7 38.3zM39.5 29.6c-0.5 0.7-0.9 1.4-1.3 2.1-1.1 2-2 4.2-2.7 6.5h-5.2C32.5 34.7 35.6 31.7 39.5 29.6zM49.5 8.1c10.8-0.1 21.1 3.9 29 11.2l0-3.2c0-1.2 0.9-2.1 2.1-2.1 0 0 0 0 0 0 1.2 0 2.1 0.9 2.1 2.1l0.1 8.3c0 1.2-0.9 2.1-2.1 2.1l-8.3 0.1c0 0 0 0 0 0-1.2 0-2.1-0.9-2.1-2.1 0-1.2 0.9-2.1 2.1-2.1l3.2 0c-7.1-6.5-16.2-10.1-25.9-10-10.1 0.1-19.5 4.1-26.5 11.3C12.9 34.1 9.6 49.1 14.5 62.8c0.4 1.1-0.2 2.3-1.3 2.7-0.2 0.1-0.5 0.1-0.7 0.1-0.9 0-1.7-0.5-2-1.4C7.9 56.9 7.4 49 9 41.4c1.6-7.8 5.5-15 11.1-20.7C27.8 12.7 38.3 8.2 49.5 8.1zM76.9 76.3c10.2-10.4 13.4-25.4 8.5-39.1-0.4-1.1 0.2-2.3 1.3-2.7 1.1-0.4 2.3 0.2 2.7 1.3 2.6 7.3 3.2 15.2 1.6 22.8-1.6 7.8-5.5 15-11.1 20.7-7.8 8-18.3 12.5-29.5 12.6-0.2 0-0.3 0-0.5 0-10.7 0-20.7-4-28.5-11.2l0 3.2c0 1.2-0.9 2.1-2.1 2.1 0 0 0 0 0 0-1.2 0-2.1-0.9-2.1-2.1l-0.1-8.3c0-0.6 0.2-1.1 0.6-1.5 0.4-0.4 0.9-0.6 1.5-0.6l8.3-0.1c1.2 0 2.1 0.9 2.1 2.1 0 1.2-0.9 2.1-2.1 2.1l-3.2 0C39.4 91.4 62.7 90.9 76.9 76.3z" fill="black"></path></svg></g></svg></g></svg></g></svg></g></svg></g><defs><mask></mask></defs></svg><rect width="395.52" height="132.59444583595356" fill="black" stroke="none" visibility="hidden"></rect></g></mask><linearGradient x1="0.054" x2="0.941" y1="0.5" y2="0.5" id="bfb62696-19ea-405d-a238-d8c956590c15"><stop stop-color="#864d25" offset="0"></stop><stop stop-color="#f1c4b3" offset="0.498"></stop><stop stop-color="#864d25" offset="1"></stop></linearGradient><rect width="395.52" height="132.59444583595356" fill="url(#bfb62696-19ea-405d-a238-d8c956590c15)" mask="url(#72e08321-a555-435e-8f06-03c580a11c2e)" data-fill-palette-color="primary"></rect><mask id="4b1ab850-3d1e-46a8-bc63-b005433cf486"><g id="SvgjsG1172"><svg viewBox="0 0 395.52 132.59444583595356" height="132.59444583595356" width="395.52"><g><svg viewBox="0 0 670.802184345993 224.88026875734255" height="132.59444583595356" width="395.52"><g transform="matrix(1,0,0,1,0,59.06546309839447)"><svg viewBox="0 0 395.52 106.74934256055361" height="106.74934256055361" width="395.52"><g id="SvgjsG1171"><svg viewBox="0 0 395.52 106.74934256055361" height="106.74934256055361" width="395.52" id="SvgjsSvg1170"><g><svg viewBox="0 0 395.52 106.74934256055361" height="106.74934256055361" width="395.52"><g transform="matrix(1,0,0,1,0,0)"><svg width="395.52" viewBox="1.6 -36.3 173.39000000000001 46.8" height="106.74934256055361" data-palette-color="url(#bfb62696-19ea-405d-a238-d8c956590c15)"></svg></g></svg></g></svg></g></svg></g><g transform="matrix(1,0,0,1,445.9219155886505,0)"><svg viewBox="0 0 224.88026875734255 224.88026875734255" height="224.88026875734255" width="224.88026875734255"><g><svg></svg></g><g id="SvgjsG1169"><svg viewBox="0 0 224.88026875734255 224.88026875734255" height="224.88026875734255" width="224.88026875734255"><g><path d="M0 112.44c0-62.099 50.341-112.44 112.44-112.44 62.099 0 112.44 50.341 112.44 112.44 0 62.099-50.341 112.44-112.44 112.44-62.099 0-112.44-50.341-112.44-112.44zM112.44 215.254c56.782 0 102.813-46.031 102.814-102.814 0-56.782-46.031-102.813-102.814-102.813-56.782 0-102.813 46.031-102.813 102.813 0 56.782 46.031 102.813 102.813 102.814z" fill="white" stroke="transparent"></path></g><g transform="matrix(1,0,0,1,49.620853101954886,49.61713907566579)"><svg viewBox="0 0 125.63856255343278 125.64599060601097" height="125.64599060601097" width="125.63856255343278"><g><svg xmlns="http://www.w3.org/2000/svg" xmlns:xlink="http://www.w3.org/1999/xlink" version="1.1" x="0" y="0" viewBox="8.085714285714285 8.098169278175142 83.79687644989187 83.80183072182484" enable-background="new 0 0 100 100" xml:space="preserve" height="125.64599060601097" width="125.63856255343278" class="icon-cg-0" data-fill-palette-color="accent" id="SvgjsSvg1168"><path d="M50 77.1c3.6 0 7.1-0.7 10.4-2.1 13.8-5.7 20.4-21.6 14.7-35.5C70.9 29.4 61 22.9 50 22.9c-3.6 0-7.1 0.7-10.4 2.1-13.8 5.7-20.4 21.6-14.7 35.5C29.1 70.6 39 77.1 50 77.1zM30.3 61.7h5.5c1.1 3.3 2.6 6.5 4.4 9.1C36.2 68.8 32.7 65.7 30.3 61.7zM71.7 42.6c1.7 5 1.6 10.2 0 14.9h-6c0.5-2.5 0.8-5.1 0.8-7.5 0-2.5-0.2-5-0.7-7.4H71.7zM62.2 50c0 2.4-0.3 5-1 7.5h-9V42.6h9.2C62 44.9 62.2 47.4 62.2 50zM48 72.2c-3.1-1.4-5.9-5.6-7.7-10.5H48V72.2zM52.3 72.2V61.7H60C58.1 66.7 55.3 70.9 52.3 72.2zM52.3 38.3V27.6c3.2 1.3 6.2 5.4 8 10.7H52.3zM48 27.6v10.7h-8C41.8 33 44.8 28.9 48 27.6zM48 42.6v14.9h-9c-0.6-2.5-1-5.1-1-7.5 0-2.5 0.3-5 0.8-7.4H48zM34.7 57.4h-6.3c-1.7-5-1.6-10.2 0-14.9h6.1C34 45 33.8 47.5 33.8 50 33.8 52.3 34.1 54.8 34.7 57.4zM60.2 70.5c0.6-0.9 1.3-1.9 1.8-3 0.9-1.8 1.8-3.7 2.4-5.8h5.2C67.5 65.4 64.3 68.5 60.2 70.5zM69.7 38.3h-4.9c-0.7-2.3-1.6-4.6-2.7-6.5-0.4-0.7-0.8-1.3-1.2-1.9C64.5 31.8 67.5 34.7 69.7 38.3zM39.5 29.6c-0.5 0.7-0.9 1.4-1.3 2.1-1.1 2-2 4.2-2.7 6.5h-5.2C32.5 34.7 35.6 31.7 39.5 29.6zM49.5 8.1c10.8-0.1 21.1 3.9 29 11.2l0-3.2c0-1.2 0.9-2.1 2.1-2.1 0 0 0 0 0 0 1.2 0 2.1 0.9 2.1 2.1l0.1 8.3c0 1.2-0.9 2.1-2.1 2.1l-8.3 0.1c0 0 0 0 0 0-1.2 0-2.1-0.9-2.1-2.1 0-1.2 0.9-2.1 2.1-2.1l3.2 0c-7.1-6.5-16.2-10.1-25.9-10-10.1 0.1-19.5 4.1-26.5 11.3C12.9 34.1 9.6 49.1 14.5 62.8c0.4 1.1-0.2 2.3-1.3 2.7-0.2 0.1-0.5 0.1-0.7 0.1-0.9 0-1.7-0.5-2-1.4C7.9 56.9 7.4 49 9 41.4c1.6-7.8 5.5-15 11.1-20.7C27.8 12.7 38.3 8.2 49.5 8.1zM76.9 76.3c10.2-10.4 13.4-25.4 8.5-39.1-0.4-1.1 0.2-2.3 1.3-2.7 1.1-0.4 2.3 0.2 2.7 1.3 2.6 7.3 3.2 15.2 1.6 22.8-1.6 7.8-5.5 15-11.1 20.7-7.8 8-18.3 12.5-29.5 12.6-0.2 0-0.3 0-0.5 0-10.7 0-20.7-4-28.5-11.2l0 3.2c0 1.2-0.9 2.1-2.1 2.1 0 0 0 0 0 0-1.2 0-2.1-0.9-2.1-2.1l-0.1-8.3c0-0.6 0.2-1.1 0.6-1.5 0.4-0.4 0.9-0.6 1.5-0.6l8.3-0.1c1.2 0 2.1 0.9 2.1 2.1 0 1.2-0.9 2.1-2.1 2.1l-3.2 0C39.4 91.4 62.7 90.9 76.9 76.3z" fill="white"></path></svg></g></svg></g></svg></g></svg></g></svg></g><defs><mask></mask></defs><mask><g id="SvgjsG1167"><svg viewBox="0 0 395.52 132.59444583595356" height="132.59444583595356" width="395.52"><g><svg viewBox="0 0 670.802184345993 224.88026875734255" height="132.59444583595356" width="395.52"><g transform="matrix(1,0,0,1,0,59.06546309839447)"><svg viewBox="0 0 395.52 106.74934256055361" height="106.74934256055361" width="395.52"><g id="SvgjsG1166"><svg viewBox="0 0 395.52 106.74934256055361" height="106.74934256055361" width="395.52" id="SvgjsSvg1165"><g><svg viewBox="0 0 395.52 106.74934256055361" height="106.74934256055361" width="395.52"><g transform="matrix(1,0,0,1,0,0)"><svg width="395.52" viewBox="1.6 -36.3 173.39000000000001 46.8" height="106.74934256055361" data-palette-color="url(#bfb62696-19ea-405d-a238-d8c956590c15)"><path d="M15.55-27Q20.85-27 24.53-24.93 28.2-22.85 28.2-18.5L28.2-18.5 18.95-18.5Q18.95-19.95 17.65-20.55L17.65-20.55Q16.75-21.05 15.4-21.05L15.4-21.05Q11.8-21.05 11.8-19.35L11.8-19.35Q11.8-18.4 13.05-18 14.3-17.6 17.15-17.15L17.15-17.15Q20.65-16.65 23-15.98 25.35-15.3 27.1-13.58 28.85-11.85 28.85-8.75L28.85-8.75Q28.85-3.7 25.08-1.55 21.3 0.6 15.2 0.6L15.2 0.6Q11.7 0.6 8.6-0.38 5.5-1.35 3.55-3.4 1.6-5.45 1.6-8.6L1.6-8.6 10.85-8.6 10.85-8.4Q10.9-6.7 12.28-6.03 13.65-5.35 15.2-5.35L15.2-5.35Q19.35-5.35 19.35-7.3L19.35-7.3Q19.35-8.3 18.05-8.75 16.75-9.2 13.8-9.7L13.8-9.7Q10.25-10.3 7.98-11 5.7-11.7 4-13.38 2.3-15.05 2.3-18.05L2.3-18.05Q2.3-22.9 5.98-24.95 9.65-27 15.55-27L15.55-27ZM45.55-26.4L51.15-26.4 51.15-19.65 45.55-19.65 45.55-9.6Q45.55-7.8 46.15-6.98 46.75-6.15 48.35-6.15L48.35-6.15 51.15-6.15 51.15-0.3Q49.95 0.1 48.05 0.35 46.15 0.6 44.75 0.6L44.75 0.6Q40.35 0.6 37.97-1 35.6-2.6 35.6-6.45L35.6-6.45 35.6-19.65 31.9-19.65 31.9-26.4 36-26.4 38.15-34.4 45.55-34.4 45.55-26.4ZM68.8-27Q74.84-27 78.65-24.98 82.45-22.95 82.45-18.4L82.45-18.4 82.45-8.1Q82.45-7.25 82.84-6.7 83.25-6.15 84.05-6.15L84.05-6.15 85.84-6.15 85.84-0.4Q85.7-0.3 85.07-0.08 84.45 0.15 83.3 0.38 82.15 0.6 80.65 0.6L80.65 0.6Q77.75 0.6 75.87-0.28 74-1.15 73.3-2.7L73.3-2.7Q71.4-1.2 69.05-0.3 66.7 0.6 63.55 0.6L63.55 0.6Q54.25 0.6 54.25-6.8L54.25-6.8Q54.25-10.65 56.32-12.68 58.4-14.7 62.3-15.45 66.2-16.2 72.5-16.2L72.5-16.2 72.5-17.5Q72.5-19.05 71.42-19.85 70.34-20.65 68.65-20.65L68.65-20.65Q67.09-20.65 65.97-20.1 64.84-19.55 64.84-18.35L64.84-18.35 64.84-18.15 55.05-18.15Q55-18.4 55-18.85L55-18.85Q55-22.6 58.57-24.8 62.15-27 68.8-27L68.8-27ZM72.5-11.5Q68.25-11.5 66.22-10.58 64.2-9.65 64.2-8.1L64.2-8.1Q64.2-5.6 67.59-5.6L67.59-5.6Q69.55-5.6 71.02-6.65 72.5-7.7 72.5-9.25L72.5-9.25 72.5-11.5ZM105.14-27.05Q106.29-27.05 107.19-26.78 108.09-26.5 108.09-26.45L108.09-26.45 108.09-18.1 104.89-18.1Q101.79-18.1 100.42-16.5 99.04-14.9 99.04-11.75L99.04-11.75 99.04 0 89.09 0 89.09-26.4 97.24-26.4 97.89-22.4Q98.79-24.7 100.74-25.88 102.69-27.05 105.14-27.05L105.14-27.05ZM132.34-0.8Q130.29 4.75 127.32 7.63 124.34 10.5 118.99 10.5L118.99 10.5Q115.74 10.5 113.24 9.6L113.24 9.6 113.24 3.65 117.24 3.65Q120.99 3.65 121.69 0L121.69 0 111.19-26.4 121.89-26.4 126.94-8.85 127.29-8.85 131.94-26.4 141.74-26.4 132.34-0.8ZM154.69-16.3L163.14-26.4 174.74-26.4 164.99-15.75 174.99 0 163.69 0 158.14-9.05 154.69-5.7 154.69 0 144.74 0 144.74-36.3 154.69-36.3 154.69-16.3Z" opacity="1" transform="matrix(1,0,0,1,0,0)" fill="black" class="wordmark-text-0" id="SvgjsPath1164"></path></svg></g></svg></g></svg></g></svg></g><g transform="matrix(1,0,0,1,445.9219155886505,0)"><svg viewBox="0 0 224.88026875734255 224.88026875734255" height="224.88026875734255" width="224.88026875734255"><g><svg></svg></g><g id="SvgjsG1163"><svg viewBox="0 0 224.88026875734255 224.88026875734255" height="224.88026875734255" width="224.88026875734255"><g><path d="M0 112.44c0-62.099 50.341-112.44 112.44-112.44 62.099 0 112.44 50.341 112.44 112.44 0 62.099-50.341 112.44-112.44 112.44-62.099 0-112.44-50.341-112.44-112.44zM112.44 215.254c56.782 0 102.813-46.031 102.814-102.814 0-56.782-46.031-102.813-102.814-102.813-56.782 0-102.813 46.031-102.813 102.813 0 56.782 46.031 102.813 102.813 102.814z" fill="black" stroke="transparent"></path></g><g transform="matrix(1,0,0,1,49.620853101954886,49.61713907566579)"><svg viewBox="0 0 125.63856255343278 125.64599060601097" height="125.64599060601097" width="125.63856255343278"><g><svg xmlns="http://www.w3.org/2000/svg" xmlns:xlink="http://www.w3.org/1999/xlink" version="1.1" x="0" y="0" viewBox="8.085714285714285 8.098169278175142 83.79687644989187 83.80183072182484" enable-background="new 0 0 100 100" xml:space="preserve" height="125.64599060601097" width="125.63856255343278" class="icon-cg-0" data-fill-palette-color="accent" id="SvgjsSvg1162"><path d="M50 77.1c3.6 0 7.1-0.7 10.4-2.1 13.8-5.7 20.4-21.6 14.7-35.5C70.9 29.4 61 22.9 50 22.9c-3.6 0-7.1 0.7-10.4 2.1-13.8 5.7-20.4 21.6-14.7 35.5C29.1 70.6 39 77.1 50 77.1zM30.3 61.7h5.5c1.1 3.3 2.6 6.5 4.4 9.1C36.2 68.8 32.7 65.7 30.3 61.7zM71.7 42.6c1.7 5 1.6 10.2 0 14.9h-6c0.5-2.5 0.8-5.1 0.8-7.5 0-2.5-0.2-5-0.7-7.4H71.7zM62.2 50c0 2.4-0.3 5-1 7.5h-9V42.6h9.2C62 44.9 62.2 47.4 62.2 50zM48 72.2c-3.1-1.4-5.9-5.6-7.7-10.5H48V72.2zM52.3 72.2V61.7H60C58.1 66.7 55.3 70.9 52.3 72.2zM52.3 38.3V27.6c3.2 1.3 6.2 5.4 8 10.7H52.3zM48 27.6v10.7h-8C41.8 33 44.8 28.9 48 27.6zM48 42.6v14.9h-9c-0.6-2.5-1-5.1-1-7.5 0-2.5 0.3-5 0.8-7.4H48zM34.7 57.4h-6.3c-1.7-5-1.6-10.2 0-14.9h6.1C34 45 33.8 47.5 33.8 50 33.8 52.3 34.1 54.8 34.7 57.4zM60.2 70.5c0.6-0.9 1.3-1.9 1.8-3 0.9-1.8 1.8-3.7 2.4-5.8h5.2C67.5 65.4 64.3 68.5 60.2 70.5zM69.7 38.3h-4.9c-0.7-2.3-1.6-4.6-2.7-6.5-0.4-0.7-0.8-1.3-1.2-1.9C64.5 31.8 67.5 34.7 69.7 38.3zM39.5 29.6c-0.5 0.7-0.9 1.4-1.3 2.1-1.1 2-2 4.2-2.7 6.5h-5.2C32.5 34.7 35.6 31.7 39.5 29.6zM49.5 8.1c10.8-0.1 21.1 3.9 29 11.2l0-3.2c0-1.2 0.9-2.1 2.1-2.1 0 0 0 0 0 0 1.2 0 2.1 0.9 2.1 2.1l0.1 8.3c0 1.2-0.9 2.1-2.1 2.1l-8.3 0.1c0 0 0 0 0 0-1.2 0-2.1-0.9-2.1-2.1 0-1.2 0.9-2.1 2.1-2.1l3.2 0c-7.1-6.5-16.2-10.1-25.9-10-10.1 0.1-19.5 4.1-26.5 11.3C12.9 34.1 9.6 49.1 14.5 62.8c0.4 1.1-0.2 2.3-1.3 2.7-0.2 0.1-0.5 0.1-0.7 0.1-0.9 0-1.7-0.5-2-1.4C7.9 56.9 7.4 49 9 41.4c1.6-7.8 5.5-15 11.1-20.7C27.8 12.7 38.3 8.2 49.5 8.1zM76.9 76.3c10.2-10.4 13.4-25.4 8.5-39.1-0.4-1.1 0.2-2.3 1.3-2.7 1.1-0.4 2.3 0.2 2.7 1.3 2.6 7.3 3.2 15.2 1.6 22.8-1.6 7.8-5.5 15-11.1 20.7-7.8 8-18.3 12.5-29.5 12.6-0.2 0-0.3 0-0.5 0-10.7 0-20.7-4-28.5-11.2l0 3.2c0 1.2-0.9 2.1-2.1 2.1 0 0 0 0 0 0-1.2 0-2.1-0.9-2.1-2.1l-0.1-8.3c0-0.6 0.2-1.1 0.6-1.5 0.4-0.4 0.9-0.6 1.5-0.6l8.3-0.1c1.2 0 2.1 0.9 2.1 2.1 0 1.2-0.9 2.1-2.1 2.1l-3.2 0C39.4 91.4 62.7 90.9 76.9 76.3z" fill="black"></path></svg></g></svg></g></svg></g></svg></g></svg></g><defs><mask></mask></defs></svg><rect width="395.52" height="132.59444583595356" fill="black" stroke="none" visibility="hidden"></rect></g></mask></svg><rect width="395.52" height="132.59444583595356" fill="black" stroke="none" visibility="hidden"></rect></g></mask><linearGradient x1="0.054" x2="0.941" y1="0.5" y2="0.5" id="d89486a1-a701-4217-9beb-99f68ca169d0"><stop stop-color="#864d25" offset="0"></stop><stop stop-color="#f1c4b3" offset="0.498"></stop><stop stop-color="#864d25" offset="1"></stop></linearGradient><rect width="395.52" height="132.59444583595356" fill="url(#d89486a1-a701-4217-9beb-99f68ca169d0)" mask="url(#4b1ab850-3d1e-46a8-bc63-b005433cf486)" data-fill-palette-color="accent"></rect></svg><rect width="395.52" height="132.59444583595356" fill="none" stroke="none" visibility="hidden"></rect></g></svg></g></svg>